<svg width="300" height="56" viewBox="0 0 300 56" fill="none" xmlns="http://www.w3.org/2000/svg" role="img" aria-label="LabOps.ai">
  <defs><linearGradient id="fg" x1="6" y1="6" x2="44" y2="50" gradientUnits="userSpaceOnUse"><stop offset="0" stop-color="#8B5CF6"/><stop offset="1" stop-color="#B07FE8"/></linearGradient></defs>
  <g transform="translate(0,2)">
    <path d="M18.2 30 Q26 27.4 33.8 30 L39.5 42 Q41 46 37 46 H15 Q11 46 12.5 42 Z" fill="url(#fg)" opacity="0.92"/>
    <path d="M18.6 30 Q26 27.6 33.4 30" stroke="#ffffff" stroke-width="1.3" stroke-linecap="round" opacity="0.55"/>
    <path d="M20 7 H32 M22.5 7 V21 L12.5 42 Q11 46 15 46 H37 Q41 46 39.5 42 L29.5 21 V7" stroke="url(#fg)" stroke-width="2.6" stroke-linejoin="round" stroke-linecap="round"/>
    <g stroke="url(#fg)" stroke-width="1.6" stroke-linecap="round"><path d="M16.8 26 H19.4"/><path d="M14.4 31 H17"/><path d="M12 36 H14.6"/></g>
    <g fill="#ffffff" opacity="0.85"><circle cx="23" cy="39" r="1.4"/><circle cx="29.5" cy="42" r="1"/><circle cx="26" cy="44" r="0.8"/></g>
    <path d="M31.5 9 L41 5" stroke="url(#fg)" stroke-width="1.3" stroke-dasharray="2 2" stroke-linecap="round" opacity="0.75"/>
    <circle cx="44" cy="4.2" r="2.4" fill="#ffffff" stroke="url(#fg)" stroke-width="1.4"/>
    <path d="M44 3 V5.4 M42.8 4.2 H45.2" stroke="url(#fg)" stroke-width="0.9" stroke-linecap="round"/>
  </g>
  <text x="60" y="39" font-family="Helvetica Neue,Helvetica,Arial,sans-serif" font-size="34" font-weight="800" letter-spacing="-0.5" fill="#FFFFFF">LABOPS<tspan fill="#8B5CF6">.AI</tspan></text>
</svg>
